<?xml version="1.0" encoding="UTF-8"?>
<svg width="1440px" height="2080px" viewBox="0 0 1440 2080" version="1.1" xmlns="https://www.w3.org/2000/svg" xmlns:xlink="https://www.w3.org/1999/xlink" style="background: #FFFFFF;">
    <!-- Generator: Sketch 49.3 (51167) - https://www.bohemiancoding.com/sketch -->
    <title>Desktop HD Copy 3</title>
    <desc>Created with Sketch.</desc>
    <defs>
        <rect id="path-1" x="0" y="0" width="1440" height="75"></rect>
        <filter x="-0.5%" y="-6.7%" width="101.0%" height="118.7%" filterUnits="objectBoundingBox" id="filter-2">
            <feOffset dx="0" dy="2" in="SourceAlpha" result="shadowOffsetOuter1"></feOffset>
            <feGaussianBlur stdDeviation="2" in="shadowOffsetOuter1" result="shadowBlurOuter1"></feGaussianBlur>
            <feComposite in="shadowBlurOuter1" in2="SourceAlpha" operator="out" result="shadowBlurOuter1"></feComposite>
            <feColorMatrix values="0 0 0 0 0   0 0 0 0 0   0 0 0 0 0  0 0 0 0.5 0" type="matrix" in="shadowBlurOuter1"></feColorMatrix>
        </filter>
        <rect id="path-3" x="0" y="0" width="75" height="75"></rect>
        <rect id="path-4" x="28" y="744" width="680" height="224"></rect>
        <rect id="path-5" x="238" y="457" width="965" height="102"></rect>
        <rect id="path-6" x="730" y="744" width="680" height="224"></rect>
        <rect id="path-7" x="28" y="990" width="680" height="224"></rect>
        <rect id="path-8" x="730" y="990" width="680" height="224"></rect>
        <rect id="path-9" x="28" y="1238" width="680" height="224"></rect>
        <rect id="path-10" x="730" y="1238" width="680" height="224"></rect>
    </defs>
    <g id="Desktop-HD-Copy-3" stroke="none" stroke-width="1" fill="none" fill-rule="evenodd">
        <rect id="Rectangle-3" fill="#B5B3B3" x="0" y="72" width="1440" height="650"></rect>
        <g id="Rectangle">
            <use fill="black" fill-opacity="1" filter="url(#filter-2)" xlink:href="#path-1"></use>
            <use fill="#D8D8D8" fill-rule="evenodd" xlink:href="#path-1"></use>
            <rect stroke="#979797" stroke-width="1" x="0.5" y="0.5" width="1439" height="74"></rect>
        </g>
        <rect id="Rectangle-8" fill="#868686" x="1292" y="20" width="113" height="43"></rect>
        <g id="Rectangle-2">
            <use fill="#E9E9E9" fill-rule="evenodd" xlink:href="#path-3"></use>
            <rect stroke="#979797" stroke-width="1" x="0.5" y="0.5" width="74" height="74"></rect>
        </g>
        <text id="LOGO" font-family="Helvetica" font-size="14" font-weight="normal" fill="#000000">
            <tspan x="17.2724609" y="44">LOGO</tspan>
        </text>
        <path d="M517.572266,33.6542969 L519.535156,33.6542969 L519.535156,39.5820312 L526.996094,39.5820312 L526.996094,33.6542969 L528.958984,33.6542969 L528.958984,48 L526.996094,48 L526.996094,41.2910156 L519.535156,41.2910156 L519.535156,48 L517.572266,48 L517.572266,33.6542969 Z M535.882812,46.8671875 C537.048183,46.8671875 537.847329,46.4261112 538.280273,45.5439453 C538.713218,44.6617794 538.929688,43.6803439 538.929688,42.5996094 C538.929688,41.623042 538.773439,40.8287791 538.460938,40.2167969 C537.966143,39.2532504 537.113287,38.7714844 535.902344,38.7714844 C534.82812,38.7714844 534.046877,39.1816365 533.558594,40.0019531 C533.07031,40.8222697 532.826172,41.8118432 532.826172,42.9707031 C532.826172,44.0839899 533.07031,45.011715 533.558594,45.7539062 C534.046877,46.4960975 534.821609,46.8671875 535.882812,46.8671875 Z M535.951172,37.2382812 C537.298835,37.2382812 538.438146,37.6874955 539.369141,38.5859375 C540.300135,39.4843795 540.765625,40.8059809 540.765625,42.5507812 C540.765625,44.2369876 540.355473,45.6302028 539.535156,46.7304688 C538.71484,47.8307347 537.442066,48.3808594 535.716797,48.3808594 C534.277988,48.3808594 533.135421,47.8942106 532.289062,46.9208984 C531.442704,45.9475863 531.019531,44.6406332 531.019531,43 C531.019531,41.2421787 531.46549,39.8424531 532.357422,38.8007812 C533.249353,37.7591094 534.447258,37.2382812 535.951172,37.2382812 Z M542.855469,37.5410156 L544.59375,37.5410156 L544.59375,39.0253906 C545.010419,38.5110651 545.388019,38.1367199 545.726562,37.9023438 C546.305992,37.5052063 546.963538,37.3066406 547.699219,37.3066406 C548.532556,37.3066406 549.203122,37.5117167 549.710938,37.921875 C549.997397,38.1562512 550.257811,38.5012998 550.492188,38.9570312 C550.882814,38.3971326 551.341794,37.9820977 551.869141,37.7119141 C552.396487,37.4417304 552.988929,37.3066406 553.646484,37.3066406 C555.052741,37.3066406 556.009763,37.814448 556.517578,38.8300781 C556.791017,39.3769559 556.927734,40.1126256 556.927734,41.0371094 L556.927734,48 L555.101562,48 L555.101562,40.734375 C555.101562,40.0377569 554.927411,39.5592461 554.579102,39.2988281 C554.230793,39.0384102 553.805992,38.9082031 553.304688,38.9082031 C552.61458,38.9082031 552.02051,39.1393206 551.522461,39.6015625 C551.024412,40.0638044 550.775391,40.8352811 550.775391,41.9160156 L550.775391,48 L548.988281,48 L548.988281,41.1738281 C548.988281,40.4641892 548.903647,39.9466162 548.734375,39.6210938 C548.467447,39.1328101 547.969405,38.8886719 547.240234,38.8886719 C546.576169,38.8886719 545.972333,39.1458308 545.428711,39.6601562 C544.885088,40.1744817 544.613281,41.105462 544.613281,42.453125 L544.613281,48 L542.855469,48 L542.855469,37.5410156 Z M563.871094,37.3066406 C564.613285,37.3066406 565.332679,37.4807925 566.029297,37.8291016 C566.725915,38.1774106 567.256509,38.6282524 567.621094,39.1816406 C567.972658,39.708987 568.207031,40.3242152 568.324219,41.0273438 C568.428386,41.509117 568.480469,42.2773385 568.480469,43.3320312 L560.814453,43.3320312 C560.847005,44.3932345 561.097654,45.2444629 561.566406,45.8857422 C562.035159,46.5270214 562.761063,46.8476562 563.744141,46.8476562 C564.662114,46.8476562 565.394529,46.5449249 565.941406,45.9394531 C566.253908,45.5878889 566.47526,45.1809919 566.605469,44.71875 L568.333984,44.71875 C568.288411,45.1028665 568.137046,45.5309221 567.879883,46.0029297 C567.62272,46.4749373 567.334637,46.8606756 567.015625,47.1601562 C566.481768,47.6809922 565.820967,48.0325512 565.033203,48.2148438 C564.610024,48.3190109 564.131513,48.3710938 563.597656,48.3710938 C562.295566,48.3710938 561.192062,47.8974657 560.287109,46.9501953 C559.382157,46.002925 558.929688,44.6764408 558.929688,42.9707031 C558.929688,41.2910072 559.385412,39.9270886 560.296875,38.8789062 C561.208338,37.8307239 562.399732,37.3066406 563.871094,37.3066406 Z M566.673828,41.9355469 C566.602213,41.1738243 566.436199,40.5651064 566.175781,40.109375 C565.694008,39.2630166 564.88998,38.8398438 563.763672,38.8398438 C562.956376,38.8398438 562.2793,39.131182 561.732422,39.7138672 C561.185544,40.2965524 560.895833,41.0371049 560.863281,41.9355469 L566.673828,41.9355469 Z M632.708984,42.1210938 L630.53125,35.7832031 L628.216797,42.1210938 L632.708984,42.1210938 Z M629.515625,33.6542969 L631.712891,33.6542969 L636.917969,48 L634.789062,48 L633.333984,43.703125 L627.660156,43.703125 L626.107422,48 L624.115234,48 L629.515625,33.6542969 Z M638.314453,33.6054688 L640.023438,33.6054688 L640.023438,38.8105469 C640.407554,38.3092423 640.866534,37.9267591 641.400391,37.6630859 C641.934247,37.3994127 642.513669,37.2675781 643.138672,37.2675781 C644.440762,37.2675781 645.497066,37.7151648 646.307617,38.6103516 C647.118168,39.5055383 647.523438,40.8255121 647.523438,42.5703125 C647.523438,44.2239666 647.123051,45.5976508 646.322266,46.6914062 C645.52148,47.7851617 644.411465,48.3320312 642.992188,48.3320312 C642.197913,48.3320312 641.527346,48.1399759 640.980469,47.7558594 C640.654946,47.5279937 640.306642,47.163414 639.935547,46.6621094 L639.935547,48 L638.314453,48 L638.314453,33.6054688 Z M642.884766,46.7792969 C643.835291,46.7792969 644.546547,46.4016965 645.018555,45.6464844 C645.490562,44.8912723 645.726562,43.8951885 645.726562,42.6582031 C645.726562,41.5579372 645.490562,40.646488 645.018555,39.9238281 C644.546547,39.2011683 643.851567,38.8398438 642.933594,38.8398438 C642.132808,38.8398438 641.431318,39.1360647 640.829102,39.7285156 C640.226885,40.3209665 639.925781,41.2975192 639.925781,42.6582031 C639.925781,43.641281 640.049478,44.438799 640.296875,45.0507812 C640.759117,46.2031308 641.621738,46.7792969 642.884766,46.7792969 Z M653.724609,46.8671875 C654.88998,46.8671875 655.689125,46.4261112 656.12207,45.5439453 C656.555015,44.6617794 656.771484,43.6803439 656.771484,42.5996094 C656.771484,41.623042 656.615236,40.8287791 656.302734,40.2167969 C655.80794,39.2532504 654.955084,38.7714844 653.744141,38.7714844 C652.669917,38.7714844 651.888674,39.1816365 651.400391,40.0019531 C650.912107,40.8222697 650.667969,41.8118432 650.667969,42.9707031 C650.667969,44.0839899 650.912107,45.011715 651.400391,45.7539062 C651.888674,46.4960975 652.663406,46.8671875 653.724609,46.8671875 Z M653.792969,37.2382812 C655.140632,37.2382812 656.279943,37.6874955 657.210938,38.5859375 C658.141932,39.4843795 658.607422,40.8059809 658.607422,42.5507812 C658.607422,44.2369876 658.19727,45.6302028 657.376953,46.7304688 C656.556637,47.8307347 655.283863,48.3808594 653.558594,48.3808594 C652.119784,48.3808594 650.977218,47.8942106 650.130859,46.9208984 C649.284501,45.9475863 648.861328,44.6406332 648.861328,43 C648.861328,41.2421787 649.307287,39.8424531 650.199219,38.8007812 C651.09115,37.7591094 652.289055,37.2382812 653.792969,37.2382812 Z M662.455078,37.5410156 L662.455078,44.484375 C662.455078,45.0182318 662.539713,45.4544254 662.708984,45.7929688 C663.021486,46.4179719 663.604162,46.7304688 664.457031,46.7304688 C665.680996,46.7304688 666.514321,46.1835992 666.957031,45.0898438 C667.197918,44.5039033 667.318359,43.6998749 667.318359,42.6777344 L667.318359,37.5410156 L669.076172,37.5410156 L669.076172,48 L667.416016,48 L667.435547,46.4570312 C667.207681,46.8541687 666.924481,47.1894518 666.585938,47.4628906 C665.915361,48.0097684 665.101567,48.2832031 664.144531,48.2832031 C662.653638,48.2832031 661.638024,47.7851612 661.097656,46.7890625 C660.804686,46.2552057 660.658203,45.5423222 660.658203,44.6503906 L660.658203,37.5410156 L662.455078,37.5410156 Z M672.171875,34.6210938 L673.949219,34.6210938 L673.949219,37.5410156 L675.619141,37.5410156 L675.619141,38.9765625 L673.949219,38.9765625 L673.949219,45.8027344 C673.949219,46.1673195 674.072915,46.4114577 674.320312,46.5351562 C674.457032,46.6067712 674.684894,46.6425781 675.003906,46.6425781 C675.088542,46.6425781 675.179687,46.6409505 675.277344,46.6376953 C675.375,46.6344401 675.488932,46.6263021 675.619141,46.6132812 L675.619141,48 C675.417317,48.058594 675.207358,48.1009113 674.989258,48.1269531 C674.771158,48.1529949 674.535158,48.1660156 674.28125,48.1660156 C673.460933,48.1660156 672.904298,47.9560568 672.611328,47.5361328 C672.318358,47.1162088 672.171875,46.5709669 672.171875,45.9003906 L672.171875,38.9765625 L670.755859,38.9765625 L670.755859,37.5410156 L672.171875,37.5410156 L672.171875,34.6210938 Z M733.666016,33.2636719 C735.482431,33.2636719 736.891922,33.7421827 737.894531,34.6992188 C738.89714,35.6562548 739.453775,36.7434835 739.564453,37.9609375 L737.669922,37.9609375 C737.455077,37.0364537 737.027021,36.3040392 736.385742,35.7636719 C735.744463,35.2233046 734.844407,34.953125 733.685547,34.953125 C732.272779,34.953125 731.13184,35.4495393 730.262695,36.4423828 C729.39355,37.4352263 728.958984,38.957021 728.958984,41.0078125 C728.958984,42.6875084 729.351233,44.0497995 730.135742,45.0947266 C730.920251,46.1396537 732.090487,46.6621094 733.646484,46.6621094 C735.078783,46.6621094 736.169267,46.1119847 736.917969,45.0117188 C737.315106,44.4322888 737.611327,43.6705776 737.806641,42.7265625 L739.701172,42.7265625 C739.5319,44.2369867 738.97201,45.5032501 738.021484,46.5253906 C736.882156,47.7558655 735.345713,48.3710938 733.412109,48.3710938 C731.745434,48.3710938 730.345709,47.8665415 729.212891,46.8574219 C727.721998,45.5227798 726.976562,43.4622535 726.976562,40.6757812 C726.976562,38.5598853 727.536453,36.8248766 728.65625,35.4707031 C729.867194,33.9993416 731.537099,33.2636719 733.666016,33.2636719 Z M745.980469,46.8671875 C747.145839,46.8671875 747.944985,46.4261112 748.37793,45.5439453 C748.810875,44.6617794 749.027344,43.6803439 749.027344,42.5996094 C749.027344,41.623042 748.871095,40.8287791 748.558594,40.2167969 C748.0638,39.2532504 747.210944,38.7714844 746,38.7714844 C744.925776,38.7714844 744.144534,39.1816365 743.65625,40.0019531 C743.167966,40.8222697 742.923828,41.8118432 742.923828,42.9707031 C742.923828,44.0839899 743.167966,45.011715 743.65625,45.7539062 C744.144534,46.4960975 744.919266,46.8671875 745.980469,46.8671875 Z M746.048828,37.2382812 C747.396491,37.2382812 748.535803,37.6874955 749.466797,38.5859375 C750.397791,39.4843795 750.863281,40.8059809 750.863281,42.5507812 C750.863281,44.2369876 750.453129,45.6302028 749.632812,46.7304688 C748.812496,47.8307347 747.539722,48.3808594 745.814453,48.3808594 C744.375644,48.3808594 743.233077,47.8942106 742.386719,46.9208984 C741.54036,45.9475863 741.117188,44.6406332 741.117188,43 C741.117188,41.2421787 741.563147,39.8424531 742.455078,38.8007812 C743.34701,37.7591094 744.544914,37.2382812 746.048828,37.2382812 Z M752.953125,37.5410156 L754.623047,37.5410156 L754.623047,39.0253906 C755.117841,38.4134084 755.641924,37.9739597 756.195312,37.7070312 C756.748701,37.4401028 757.363929,37.3066406 758.041016,37.3066406 C759.525398,37.3066406 760.527992,37.8242136 761.048828,38.859375 C761.335288,39.4257841 761.478516,40.2363229 761.478516,41.2910156 L761.478516,48 L759.691406,48 L759.691406,41.4082031 C759.691406,40.7701791 759.597006,40.2558613 759.408203,39.8652344 C759.095702,39.2141895 758.529301,38.8886719 757.708984,38.8886719 C757.292316,38.8886719 756.950522,38.9309892 756.683594,39.015625 C756.201821,39.1588549 755.778648,39.4453104 755.414062,39.875 C755.121092,40.2200538 754.930665,40.5764956 754.842773,40.9443359 C754.754882,41.3121763 754.710938,41.8378872 754.710938,42.5214844 L754.710938,48 L752.953125,48 L752.953125,37.5410156 Z M764.427734,34.6210938 L766.205078,34.6210938 L766.205078,37.5410156 L767.875,37.5410156 L767.875,38.9765625 L766.205078,38.9765625 L766.205078,45.8027344 C766.205078,46.1673195 766.328775,46.4114577 766.576172,46.5351562 C766.712891,46.6067712 766.940754,46.6425781 767.259766,46.6425781 C767.344401,46.6425781 767.435546,46.6409505 767.533203,46.6376953 C767.63086,46.6344401 767.744791,46.6263021 767.875,46.6132812 L767.875,48 C767.673176,48.058594 767.463217,48.1009113 767.245117,48.1269531 C767.027017,48.1529949 766.791017,48.1660156 766.537109,48.1660156 C765.716793,48.1660156 765.160158,47.9560568 764.867188,47.5361328 C764.574217,47.1162088 764.427734,46.5709669 764.427734,45.9003906 L764.427734,38.9765625 L763.011719,38.9765625 L763.011719,37.5410156 L764.427734,37.5410156 L764.427734,34.6210938 Z M770.980469,45.2167969 C770.980469,45.7246119 771.166014,46.1249985 771.537109,46.4179688 C771.908205,46.710939 772.347654,46.8574219 772.855469,46.8574219 C773.473961,46.8574219 774.072914,46.7141941 774.652344,46.4277344 C775.628911,45.9524716 776.117188,45.1744846 776.117188,44.09375 L776.117188,42.6777344 C775.902343,42.8144538 775.625653,42.928385 775.287109,43.0195312 C774.948566,43.1106775 774.616538,43.1757811 774.291016,43.2148438 L773.226562,43.3515625 C772.588538,43.4361983 772.110028,43.5696605 771.791016,43.7519531 C771.250648,44.0579442 770.980469,44.5462206 770.980469,45.2167969 Z M775.238281,41.6621094 C775.641929,41.6100258 775.912109,41.4407566 776.048828,41.1542969 C776.126954,40.9980461 776.166016,40.773439 776.166016,40.4804688 C776.166016,39.8815074 775.952802,39.4469415 775.526367,39.1767578 C775.099933,38.9065742 774.489587,38.7714844 773.695312,38.7714844 C772.777339,38.7714844 772.126304,39.0188777 771.742188,39.5136719 C771.527343,39.7871107 771.38737,40.1940077 771.322266,40.734375 L769.681641,40.734375 C769.714193,39.4453061 770.132483,38.5485051 770.936523,38.0439453 C771.740564,37.5393855 772.673172,37.2871094 773.734375,37.2871094 C774.96485,37.2871094 775.964189,37.521482 776.732422,37.9902344 C777.494144,38.4589867 777.875,39.1881461 777.875,40.1777344 L777.875,46.203125 C777.875,46.3854176 777.912435,46.5319005 777.987305,46.6425781 C778.062175,46.7532558 778.220051,46.8085938 778.460938,46.8085938 C778.539063,46.8085938 778.626953,46.803711 778.724609,46.7939453 C778.822266,46.7841796 778.926432,46.7695313 779.037109,46.75 L779.037109,48.0488281 C778.763671,48.1269535 778.555339,48.1757812 778.412109,48.1953125 C778.268879,48.2148438 778.073569,48.2246094 777.826172,48.2246094 C777.2207,48.2246094 776.781251,48.0097678 776.507812,47.5800781 C776.364583,47.3522124 776.263672,47.02995 776.205078,46.6132812 C775.847003,47.0820336 775.332686,47.4889306 774.662109,47.8339844 C773.991533,48.1790382 773.252608,48.3515625 772.445312,48.3515625 C771.475256,48.3515625 770.68262,48.0569691 770.067383,47.4677734 C769.452145,46.8785778 769.144531,46.1412805 769.144531,45.2558594 C769.144531,44.2858024 769.447263,43.5338568 770.052734,43 C770.658206,42.4661432 771.452469,42.1373704 772.435547,42.0136719 L775.238281,41.6621094 Z M784.789062,37.2382812 C785.967454,37.2382812 786.926103,37.5247367 787.665039,38.0976562 C788.403975,38.6705758 788.848307,39.656894 788.998047,41.0566406 L787.289062,41.0566406 C787.184895,40.4121062 786.947267,39.8766297 786.576172,39.4501953 C786.205076,39.0237609 785.609379,38.8105469 784.789062,38.8105469 C783.669265,38.8105469 782.868492,39.3574164 782.386719,40.4511719 C782.074217,41.1608108 781.917969,42.0364531 781.917969,43.078125 C781.917969,44.1263073 782.139321,45.00846 782.582031,45.7246094 C783.024742,46.4407588 783.721349,46.7988281 784.671875,46.7988281 C785.401045,46.7988281 785.978839,46.5758486 786.405273,46.1298828 C786.831708,45.683917 787.126301,45.0735716 787.289062,44.2988281 L788.998047,44.2988281 C788.802733,45.6855538 788.314457,46.6995411 787.533203,47.3408203 C786.751949,47.9820996 785.75261,48.3027344 784.535156,48.3027344 C783.167962,48.3027344 782.077478,47.8030649 781.263672,46.8037109 C780.449866,45.804357 780.042969,44.5559971 780.042969,43.0585938 C780.042969,41.2226471 780.488928,39.7936249 781.380859,38.7714844 C782.272791,37.7493438 783.408847,37.2382812 784.789062,37.2382812 Z M791.107422,34.6210938 L792.884766,34.6210938 L792.884766,37.5410156 L794.554688,37.5410156 L794.554688,38.9765625 L792.884766,38.9765625 L792.884766,45.8027344 C792.884766,46.1673195 793.008462,46.4114577 793.255859,46.5351562 C793.392579,46.6067712 793.620441,46.6425781 793.939453,46.6425781 C794.024089,46.6425781 794.115234,46.6409505 794.212891,46.6376953 C794.310547,46.6344401 794.424479,46.6263021 794.554688,46.6132812 L794.554688,48 C794.352864,48.058594 794.142905,48.1009113 793.924805,48.1269531 C793.706705,48.1529949 793.470704,48.1660156 793.216797,48.1660156 C792.39648,48.1660156 791.839845,47.9560568 791.546875,47.5361328 C791.253905,47.1162088 791.107422,46.5709669 791.107422,45.9003906 L791.107422,38.9765625 L789.691406,38.9765625 L789.691406,37.5410156 L791.107422,37.5410156 L791.107422,34.6210938 Z M804.212891,33.6542969 L804.212891,42.5214844 C804.212891,43.5631562 804.408201,44.429033 804.798828,45.1191406 C805.378258,46.1608125 806.354811,46.6816406 807.728516,46.6816406 C809.375659,46.6816406 810.49544,46.1184952 811.087891,44.9921875 C811.406903,44.3802053 811.566406,43.5566458 811.566406,42.5214844 L811.566406,33.6542969 L813.539062,33.6542969 L813.539062,41.7109375 C813.539062,43.4752692 813.301435,44.8326775 812.826172,45.7832031 C811.953772,47.5149826 810.306653,48.3808594 807.884766,48.3808594 C805.462879,48.3808594 803.819015,47.5149826 802.953125,45.7832031 C802.477862,44.8326775 802.240234,43.4752692 802.240234,41.7109375 L802.240234,33.6542969 L804.212891,33.6542969 Z M817.357422,44.71875 C817.409505,45.3046904 817.555988,45.7539047 817.796875,46.0664062 C818.239586,46.6328153 819.007807,46.9160156 820.101562,46.9160156 C820.752607,46.9160156 821.325518,46.7744155 821.820312,46.4912109 C822.315107,46.2080064 822.5625,45.7701853 822.5625,45.1777344 C822.5625,44.7285134 822.363934,44.3867199 821.966797,44.1523438 C821.712889,44.0091139 821.211592,43.8430999 820.462891,43.6542969 L819.066406,43.3027344 C818.174475,43.0813791 817.516929,42.8339857 817.09375,42.5605469 C816.338538,42.0852841 815.960938,41.4277386 815.960938,40.5878906 C815.960938,39.5983023 816.317379,38.7975291 817.030273,38.1855469 C817.743168,37.5735646 818.701817,37.2675781 819.90625,37.2675781 C821.481779,37.2675781 822.617835,37.7298131 823.314453,38.6542969 C823.750653,39.2402373 823.96224,39.8717414 823.949219,40.5488281 L822.289062,40.5488281 C822.25651,40.1516907 822.116538,39.7903662 821.869141,39.4648438 C821.465493,39.0026019 820.76563,38.7714844 819.769531,38.7714844 C819.105465,38.7714844 818.602541,38.8984362 818.260742,39.1523438 C817.918944,39.4062513 817.748047,39.7415344 817.748047,40.1582031 C817.748047,40.6139346 817.972654,40.9785143 818.421875,41.2519531 C818.682293,41.4147144 819.066404,41.5579421 819.574219,41.6816406 L820.736328,41.9648438 C821.999355,42.2708349 822.845701,42.5670559 823.275391,42.8535156 C823.958988,43.3027366 824.300781,44.0091098 824.300781,44.9726562 C824.300781,45.9036505 823.947595,46.7076789 823.241211,47.3847656 C822.534827,48.0618523 821.458992,48.4003906 820.013672,48.4003906 C818.457675,48.4003906 817.355798,48.0472041 816.708008,47.3408203 C816.060218,46.6344366 815.713542,45.7604219 815.667969,44.71875 L817.357422,44.71875 Z M877.826172,43.3710938 C877.871745,44.1848999 878.0638,44.8457006 878.402344,45.3535156 C879.046878,46.3040412 880.182935,46.7792969 881.810547,46.7792969 C882.539717,46.7792969 883.203773,46.6751312 883.802734,46.4667969 C884.961594,46.063149 885.541016,45.3405 885.541016,44.2988281 C885.541016,43.5175742 885.296877,42.9609392 884.808594,42.6289062 C884.3138,42.3033838 883.539068,42.0201835 882.484375,41.7792969 L880.541016,41.3398438 C879.271478,41.053384 878.37305,40.7376319 877.845703,40.3925781 C876.93424,39.7936168 876.478516,38.8984435 876.478516,37.7070312 C876.478516,36.4179623 876.924475,35.3600302 877.816406,34.5332031 C878.708338,33.7063761 879.971346,33.2929688 881.605469,33.2929688 C883.109383,33.2929688 884.387039,33.6559208 885.438477,34.3818359 C886.489914,35.107751 887.015625,36.2682212 887.015625,37.8632812 L885.189453,37.8632812 C885.091796,37.0950482 884.883465,36.5058614 884.564453,36.0957031 C883.972002,35.3470015 882.966153,34.9726562 881.546875,34.9726562 C880.401036,34.9726562 879.577476,35.2135393 879.076172,35.6953125 C878.574867,36.1770857 878.324219,36.736976 878.324219,37.375 C878.324219,38.0781285 878.617185,38.5924463 879.203125,38.9179688 C879.587242,39.1263031 880.456373,39.3867172 881.810547,39.6992188 L883.822266,40.1582031 C884.792323,40.3795584 885.541013,40.6822897 886.068359,41.0664062 C886.979822,41.7369825 887.435547,42.7102801 887.435547,43.9863281 C887.435547,45.5748777 886.857753,46.7109341 885.702148,47.3945312 C884.546544,48.0781284 883.203784,48.4199219 881.673828,48.4199219 C879.889965,48.4199219 878.493495,47.9641973 877.484375,47.0527344 C876.475255,46.1477819 875.980469,44.9205807 876,43.3710938 L877.826172,43.3710938 Z M890.013672,34.6210938 L891.791016,34.6210938 L891.791016,37.5410156 L893.460938,37.5410156 L893.460938,38.9765625 L891.791016,38.9765625 L891.791016,45.8027344 C891.791016,46.1673195 891.914712,46.4114577 892.162109,46.5351562 C892.298829,46.6067712 892.526691,46.6425781 892.845703,46.6425781 C892.930339,46.6425781 893.021484,46.6409505 893.119141,46.6376953 C893.216797,46.6344401 893.330729,46.6263021 893.460938,46.6132812 L893.460938,48 C893.259114,48.058594 893.049155,48.1009113 892.831055,48.1269531 C892.612955,48.1529949 892.376954,48.1660156 892.123047,48.1660156 C891.30273,48.1660156 890.746095,47.9560568 890.453125,47.5361328 C890.160155,47.1162088 890.013672,46.5709669 890.013672,45.9003906 L890.013672,38.9765625 L888.597656,38.9765625 L888.597656,37.5410156 L890.013672,37.5410156 L890.013672,34.6210938 Z M899.369141,46.8671875 C900.534511,46.8671875 901.333657,46.4261112 901.766602,45.5439453 C902.199546,44.6617794 902.416016,43.6803439 902.416016,42.5996094 C902.416016,41.623042 902.259767,40.8287791 901.947266,40.2167969 C901.452471,39.2532504 900.599615,38.7714844 899.388672,38.7714844 C898.314448,38.7714844 897.533206,39.1816365 897.044922,40.0019531 C896.556638,40.8222697 896.3125,41.8118432 896.3125,42.9707031 C896.3125,44.0839899 896.556638,45.011715 897.044922,45.7539062 C897.533206,46.4960975 898.307937,46.8671875 899.369141,46.8671875 Z M899.4375,37.2382812 C900.785163,37.2382812 901.924475,37.6874955 902.855469,38.5859375 C903.786463,39.4843795 904.251953,40.8059809 904.251953,42.5507812 C904.251953,44.2369876 903.841801,45.6302028 903.021484,46.7304688 C902.201168,47.8307347 900.928394,48.3808594 899.203125,48.3808594 C897.764316,48.3808594 896.621749,47.8942106 895.775391,46.9208984 C894.929032,45.9475863 894.505859,44.6406332 894.505859,43 C894.505859,41.2421787 894.951818,39.8424531 895.84375,38.8007812 C896.735682,37.7591094 897.933586,37.2382812 899.4375,37.2382812 Z M906.390625,37.5410156 L908.060547,37.5410156 L908.060547,39.3476562 C908.197266,38.996092 908.532549,38.5680364 909.066406,38.0634766 C909.600263,37.5589167 910.215491,37.3066406 910.912109,37.3066406 C910.944662,37.3066406 911,37.3098958 911.078125,37.3164062 C911.15625,37.3229167 911.289713,37.3359374 911.478516,37.3554688 L911.478516,39.2109375 C911.374348,39.1914062 911.278321,39.1783854 911.19043,39.171875 C911.102539,39.1653646 911.006511,39.1621094 910.902344,39.1621094 C910.016923,39.1621094 909.336591,39.4469373 908.861328,40.0166016 C908.386065,40.5862659 908.148438,41.2421838 908.148438,41.984375 L908.148438,48 L906.390625,48 L906.390625,37.5410156 Z M913.001953,37.5898438 L914.789062,37.5898438 L914.789062,48 L913.001953,48 L913.001953,37.5898438 Z M913.001953,33.6542969 L914.789062,33.6542969 L914.789062,35.6464844 L913.001953,35.6464844 L913.001953,33.6542969 Z M921.800781,37.3066406 C922.542972,37.3066406 923.262366,37.4807925 923.958984,37.8291016 C924.655602,38.1774106 925.186196,38.6282524 925.550781,39.1816406 C925.902346,39.708987 926.136718,40.3242152 926.253906,41.0273438 C926.358073,41.509117 926.410156,42.2773385 926.410156,43.3320312 L918.744141,43.3320312 C918.776693,44.3932345 919.027341,45.2444629 919.496094,45.8857422 C919.964846,46.5270214 920.69075,46.8476562 921.673828,46.8476562 C922.591801,46.8476562 923.324216,46.5449249 923.871094,45.9394531 C924.183595,45.5878889 924.404947,45.1809919 924.535156,44.71875 L926.263672,44.71875 C926.218099,45.1028665 926.066733,45.5309221 925.80957,46.0029297 C925.552408,46.4749373 925.264325,46.8606756 924.945312,47.1601562 C924.411456,47.6809922 923.750655,48.0325512 922.962891,48.2148438 C922.539711,48.3190109 922.061201,48.3710938 921.527344,48.3710938 C920.225254,48.3710938 919.121749,47.8974657 918.216797,46.9501953 C917.311844,46.002925 916.859375,44.6764408 916.859375,42.9707031 C916.859375,41.2910072 917.3151,39.9270886 918.226562,38.8789062 C919.138025,37.8307239 920.32942,37.3066406 921.800781,37.3066406 Z M924.603516,41.9355469 C924.531901,41.1738243 924.365887,40.5651064 924.105469,40.109375 C923.623696,39.2630166 922.819667,38.8398438 921.693359,38.8398438 C920.886064,38.8398438 920.208987,39.131182 919.662109,39.7138672 C919.115232,40.2965524 918.825521,41.0371049 918.792969,41.9355469 L924.603516,41.9355469 Z M929.613281,44.71875 C929.665365,45.3046904 929.811848,45.7539047 930.052734,46.0664062 C930.495445,46.6328153 931.263666,46.9160156 932.357422,46.9160156 C933.008467,46.9160156 933.581378,46.7744155 934.076172,46.4912109 C934.570966,46.2080064 934.818359,45.7701853 934.818359,45.1777344 C934.818359,44.7285134 934.619794,44.3867199 934.222656,44.1523438 C933.968749,44.0091139 933.467452,43.8430999 932.71875,43.6542969 L931.322266,43.3027344 C930.430334,43.0813791 929.772789,42.8339857 929.349609,42.5605469 C928.594397,42.0852841 928.216797,41.4277386 928.216797,40.5878906 C928.216797,39.5983023 928.573239,38.7975291 929.286133,38.1855469 C929.999027,37.5735646 930.957676,37.2675781 932.162109,37.2675781 C933.737638,37.2675781 934.873694,37.7298131 935.570312,38.6542969 C936.006513,39.2402373 936.218099,39.8717414 936.205078,40.5488281 L934.544922,40.5488281 C934.51237,40.1516907 934.372397,39.7903662 934.125,39.4648438 C933.721352,39.0026019 933.021489,38.7714844 932.025391,38.7714844 C931.361325,38.7714844 930.8584,38.8984362 930.516602,39.1523438 C930.174803,39.4062513 930.003906,39.7415344 930.003906,40.1582031 C930.003906,40.6139346 930.228513,40.9785143 930.677734,41.2519531 C930.938152,41.4147144 931.322263,41.5579421 931.830078,41.6816406 L932.992188,41.9648438 C934.255215,42.2708349 935.10156,42.5670559 935.53125,42.8535156 C936.214847,43.3027366 936.556641,44.0091098 936.556641,44.9726562 C936.556641,45.9036505 936.203454,46.7076789 935.49707,47.3847656 C934.790687,48.0618523 933.714851,48.4003906 932.269531,48.4003906 C930.713534,48.4003906 929.611657,48.0472041 928.963867,47.3408203 C928.316077,46.6344366 927.969401,45.7604219 927.923828,44.71875 L929.613281,44.71875 Z M994.369141,33.6542969 L996.664062,33.6542969 L1003.91016,45.2753906 L1003.91016,33.6542969 L1005.75586,33.6542969 L1005.75586,48 L1003.57812,48 L996.224609,36.3886719 L996.224609,48 L994.369141,48 L994.369141,33.6542969 Z M1012.93359,37.3066406 C1013.67578,37.3066406 1014.39518,37.4807925 1015.0918,37.8291016 C1015.78841,38.1774106 1016.31901,38.6282524 1016.68359,39.1816406 C1017.03516,39.708987 1017.26953,40.3242152 1017.38672,41.0273438 C1017.49089,41.509117 1017.54297,42.2773385 1017.54297,43.3320312 L1009.87695,43.3320312 C1009.90951,44.3932345 1010.16015,45.2444629 1010.62891,45.8857422 C1011.09766,46.5270214 1011.82356,46.8476562 1012.80664,46.8476562 C1013.72461,46.8476562 1014.45703,46.5449249 1015.00391,45.9394531 C1015.31641,45.5878889 1015.53776,45.1809919 1015.66797,44.71875 L1017.39648,44.71875 C1017.35091,45.1028665 1017.19955,45.5309221 1016.94238,46.0029297 C1016.68522,46.4749373 1016.39714,46.8606756 1016.07812,47.1601562 C1015.54427,47.6809922 1014.88347,48.0325512 1014.0957,48.2148438 C1013.67252,48.3190109 1013.19401,48.3710938 1012.66016,48.3710938 C1011.35807,48.3710938 1010.25456,47.8974657 1009.34961,46.9501953 C1008.44466,46.002925 1007.99219,44.6764408 1007.99219,42.9707031 C1007.99219,41.2910072 1008.44791,39.9270886 1009.35938,38.8789062 C1010.27084,37.8307239 1011.46223,37.3066406 1012.93359,37.3066406 Z M1015.73633,41.9355469 C1015.66471,41.1738243 1015.4987,40.5651064 1015.23828,40.109375 C1014.75651,39.2630166 1013.95248,38.8398438 1012.82617,38.8398438 C1012.01888,38.8398438 1011.3418,39.131182 1010.79492,39.7138672 C1010.24804,40.2965524 1009.95833,41.0371049 1009.92578,41.9355469 L1015.73633,41.9355469 Z M1020.51172,37.5410156 L1022.52344,45.7832031 L1024.56445,37.5410156 L1026.53711,37.5410156 L1028.58789,45.734375 L1030.72656,37.5410156 L1032.48438,37.5410156 L1029.44727,48 L1027.62109,48 L1025.49219,39.9042969 L1023.43164,48 L1021.60547,48 L1018.58789,37.5410156 L1020.51172,37.5410156 Z M1035.18945,44.71875 C1035.24154,45.3046904 1035.38802,45.7539047 1035.62891,46.0664062 C1036.07162,46.6328153 1036.83984,46.9160156 1037.93359,46.9160156 C1038.58464,46.9160156 1039.15755,46.7744155 1039.65234,46.4912109 C1040.14714,46.2080064 1040.39453,45.7701853 1040.39453,45.1777344 C1040.39453,44.7285134 1040.19597,44.3867199 1039.79883,44.1523438 C1039.54492,44.0091139 1039.04362,43.8430999 1038.29492,43.6542969 L1036.89844,43.3027344 C1036.00651,43.0813791 1035.34896,42.8339857 1034.92578,42.5605469 C1034.17057,42.0852841 1033.79297,41.4277386 1033.79297,40.5878906 C1033.79297,39.5983023 1034.14941,38.7975291 1034.8623,38.1855469 C1035.5752,37.5735646 1036.53385,37.2675781 1037.73828,37.2675781 C1039.31381,37.2675781 1040.44987,37.7298131 1041.14648,38.6542969 C1041.58268,39.2402373 1041.79427,39.8717414 1041.78125,40.5488281 L1040.12109,40.5488281 C1040.08854,40.1516907 1039.94857,39.7903662 1039.70117,39.4648438 C1039.29752,39.0026019 1038.59766,38.7714844 1037.60156,38.7714844 C1036.9375,38.7714844 1036.43457,38.8984362 1036.09277,39.1523438 C1035.75097,39.4062513 1035.58008,39.7415344 1035.58008,40.1582031 C1035.58008,40.6139346 1035.80469,40.9785143 1036.25391,41.2519531 C1036.51432,41.4147144 1036.89843,41.5579421 1037.40625,41.6816406 L1038.56836,41.9648438 C1039.83139,42.2708349 1040.67773,42.5670559 1041.10742,42.8535156 C1041.79102,43.3027366 1042.13281,44.0091098 1042.13281,44.9726562 C1042.13281,45.9036505 1041.77963,46.7076789 1041.07324,47.3847656 C1040.36686,48.0618523 1039.29102,48.4003906 1037.8457,48.4003906 C1036.28971,48.4003906 1035.18783,48.0472041 1034.54004,47.3408203 C1033.89225,46.6344366 1033.54557,45.7604219 1033.5,44.71875 L1035.18945,44.71875 Z M1054.125,39.2304688 C1054.74349,38.7942687 1055.16992,38.4394545 1055.4043,38.1660156 C1055.78841,37.7233051 1055.98047,37.2317735 1055.98047,36.6914062 C1055.98047,36.2682271 1055.8405,35.9036474 1055.56055,35.5976562 C1055.2806,35.2916651 1054.903,35.1386719 1054.42773,35.1386719 C1053.70507,35.1386719 1053.20378,35.3795549 1052.92383,35.8613281 C1052.7806,36.1087252 1052.70898,36.3789048 1052.70898,36.671875 C1052.70898,37.0690124 1052.81803,37.449868 1053.03613,37.8144531 C1053.25423,38.1790383 1053.61718,38.6510388 1054.125,39.2304688 Z M1053.67578,46.7890625 C1054.39844,46.7890625 1055.02018,46.6230485 1055.54102,46.2910156 C1056.06185,45.9589827 1056.46224,45.5878927 1056.74219,45.1777344 L1053.5,41.2226562 C1052.58203,41.8346385 1051.98307,42.3033838 1051.70312,42.6289062 C1051.27344,43.1171899 1051.05859,43.7128871 1051.05859,44.4160156 C1051.05859,45.1777382 1051.33691,45.7636698 1051.89355,46.1738281 C1052.4502,46.5839864 1053.04427,46.7890625 1053.67578,46.7890625 Z M1058.78048,44.936578 C1058.76277,44.9526568 1058.75391,44.9418964 1058.75391,44.9042969 L1058.78048,44.936578 Z M1058.78048,44.936578 L1061.30273,48 L1059.03711,48 L1057.68945,46.359375 C1057.1556,46.938805 1056.66732,47.3619778 1056.22461,47.6289062 C1055.44987,48.0976586 1054.55795,48.3320312 1053.54883,48.3320312 C1052.05794,48.3320312 1050.97396,47.930017 1050.29688,47.1259766 C1049.61979,46.3219361 1049.28125,45.4153696 1049.28125,44.40625 C1049.28125,43.319005 1049.61002,42.4108109 1050.26758,41.6816406 C1050.67123,41.2389301 1051.42317,40.6855502 1052.52344,40.0214844 C1051.91797,39.3248663 1051.5127,38.7389347 1051.30762,38.2636719 C1051.10254,37.7884091 1051,37.3294293 1051,36.8867188 C1051,35.962235 1051.3125,35.1956411 1051.9375,34.5869141 C1052.5625,33.9781871 1053.39908,33.6738281 1054.44727,33.6738281 C1055.44336,33.6738281 1056.22135,33.9570284 1056.78125,34.5234375 C1057.34115,35.0898466 1057.62109,35.7669231 1057.62109,36.5546875 C1057.62109,37.4726608 1057.33138,38.2766893 1056.75195,38.9667969 C1056.41341,39.3704447 1055.84701,39.8359349 1055.05273,40.3632812 L1057.66992,43.4882812 C1057.8457,42.9674453 1057.96777,42.5784518 1058.03613,42.3212891 C1058.10449,42.0641263 1058.17448,41.7044294 1058.24609,41.2421875 L1059.91602,41.2421875 C1059.80534,42.1601608 1059.58399,43.0406859 1059.25195,43.8837891 C1058.99662,44.5321266 1058.83947,44.8830547 1058.78048,44.936578 Z M1069.01758,33.6542969 L1079.47656,33.6542969 L1079.47656,35.4121094 L1070.91211,35.4121094 L1070.91211,39.7675781 L1078.83203,39.7675781 L1078.83203,41.4277344 L1070.91211,41.4277344 L1070.91211,46.2910156 L1079.62305,46.2910156 L1079.62305,48 L1069.01758,48 L1069.01758,33.6542969 Z M1082.79688,37.5410156 L1085.58984,46.0566406 L1088.50977,37.5410156 L1090.43359,37.5410156 L1086.48828,48 L1084.61328,48 L1080.75586,37.5410156 L1082.79688,37.5410156 Z M1096.29297,37.3066406 C1097.03516,37.3066406 1097.75455,37.4807925 1098.45117,37.8291016 C1099.14779,38.1774106 1099.67838,38.6282524 1100.04297,39.1816406 C1100.39453,39.708987 1100.62891,40.3242152 1100.74609,41.0273438 C1100.85026,41.509117 1100.90234,42.2773385 1100.90234,43.3320312 L1093.23633,43.3320312 C1093.26888,44.3932345 1093.51953,45.2444629 1093.98828,45.8857422 C1094.45703,46.5270214 1095.18294,46.8476562 1096.16602,46.8476562 C1097.08399,46.8476562 1097.8164,46.5449249 1098.36328,45.9394531 C1098.67578,45.5878889 1098.89713,45.1809919 1099.02734,44.71875 L1100.75586,44.71875 C1100.71029,45.1028665 1100.55892,45.5309221 1100.30176,46.0029297 C1100.0446,46.4749373 1099.75651,46.8606756 1099.4375,47.1601562 C1098.90364,47.6809922 1098.24284,48.0325512 1097.45508,48.2148438 C1097.0319,48.3190109 1096.55339,48.3710938 1096.01953,48.3710938 C1094.71744,48.3710938 1093.61394,47.8974657 1092.70898,46.9501953 C1091.80403,46.002925 1091.35156,44.6764408 1091.35156,42.9707031 C1091.35156,41.2910072 1091.80729,39.9270886 1092.71875,38.8789062 C1093.63021,37.8307239 1094.82161,37.3066406 1096.29297,37.3066406 Z M1099.0957,41.9355469 C1099.02409,41.1738243 1098.85807,40.5651064 1098.59766,40.109375 C1098.11588,39.2630166 1097.31185,38.8398438 1096.18555,38.8398438 C1095.37825,38.8398438 1094.70117,39.131182 1094.1543,39.7138672 C1093.60742,40.2965524 1093.31771,41.0371049 1093.28516,41.9355469 L1099.0957,41.9355469 Z M1103.06055,37.5410156 L1104.73047,37.5410156 L1104.73047,39.0253906 C1105.22526,38.4134084 1105.74935,37.9739597 1106.30273,37.7070312 C1106.85612,37.4401028 1107.47135,37.3066406 1108.14844,37.3066406 C1109.63282,37.3066406 1110.63541,37.8242136 1111.15625,38.859375 C1111.44271,39.4257841 1111.58594,40.2363229 1111.58594,41.2910156 L1111.58594,48 L1109.79883,48 L1109.79883,41.4082031 C1109.79883,40.7701791 1109.70443,40.2558613 1109.51562,39.8652344 C1109.20312,39.2141895 1108.63672,38.8886719 1107.81641,38.8886719 C1107.39974,38.8886719 1107.05794,38.9309892 1106.79102,39.015625 C1106.30924,39.1588549 1105.88607,39.4453104 1105.52148,39.875 C1105.22851,40.2200538 1105.03809,40.5764956 1104.9502,40.9443359 C1104.8623,41.3121763 1104.81836,41.8378872 1104.81836,42.5214844 L1104.81836,48 L1103.06055,48 L1103.06055,37.5410156 Z M1114.53516,34.6210938 L1116.3125,34.6210938 L1116.3125,37.5410156 L1117.98242,37.5410156 L1117.98242,38.9765625 L1116.3125,38.9765625 L1116.3125,45.8027344 C1116.3125,46.1673195 1116.4362,46.4114577 1116.68359,46.5351562 C1116.82031,46.6067712 1117.04818,46.6425781 1117.36719,46.6425781 C1117.45182,46.6425781 1117.54297,46.6409505 1117.64062,46.6376953 C1117.73828,46.6344401 1117.85221,46.6263021 1117.98242,46.6132812 L1117.98242,48 C1117.7806,48.058594 1117.57064,48.1009113 1117.35254,48.1269531 C1117.13444,48.1529949 1116.89844,48.1660156 1116.64453,48.1660156 C1115.82421,48.1660156 1115.26758,47.9560568 1114.97461,47.5361328 C1114.68164,47.1162088 1114.53516,46.5709669 1114.53516,45.9003906 L1114.53516,38.9765625 L1113.11914,38.9765625 L1113.11914,37.5410156 L1114.53516,37.5410156 L1114.53516,34.6210938 Z M1120.78516,44.71875 C1120.83724,45.3046904 1120.98372,45.7539047 1121.22461,46.0664062 C1121.66732,46.6328153 1122.43554,46.9160156 1123.5293,46.9160156 C1124.18034,46.9160156 1124.75325,46.7744155 1125.24805,46.4912109 C1125.74284,46.2080064 1125.99023,45.7701853 1125.99023,45.1777344 C1125.99023,44.7285134 1125.79167,44.3867199 1125.39453,44.1523438 C1125.14062,44.0091139 1124.63933,43.8430999 1123.89062,43.6542969 L1122.49414,43.3027344 C1121.60221,43.0813791 1120.94466,42.8339857 1120.52148,42.5605469 C1119.76627,42.0852841 1119.38867,41.4277386 1119.38867,40.5878906 C1119.38867,39.5983023 1119.74511,38.7975291 1120.45801,38.1855469 C1121.1709,37.5735646 1122.12955,37.2675781 1123.33398,37.2675781 C1124.90951,37.2675781 1126.04557,37.7298131 1126.74219,38.6542969 C1127.17839,39.2402373 1127.38997,39.8717414 1127.37695,40.5488281 L1125.7168,40.5488281 C1125.68424,40.1516907 1125.54427,39.7903662 1125.29688,39.4648438 C1124.89323,39.0026019 1124.19336,38.7714844 1123.19727,38.7714844 C1122.5332,38.7714844 1122.03028,38.8984362 1121.68848,39.1523438 C1121.34668,39.4062513 1121.17578,39.7415344 1121.17578,40.1582031 C1121.17578,40.6139346 1121.40039,40.9785143 1121.84961,41.2519531 C1122.11003,41.4147144 1122.49414,41.5579421 1123.00195,41.6816406 L1124.16406,41.9648438 C1125.42709,42.2708349 1126.27344,42.5670559 1126.70312,42.8535156 C1127.38672,43.3027366 1127.72852,44.0091098 1127.72852,44.9726562 C1127.72852,45.9036505 1127.37533,46.7076789 1126.66895,47.3847656 C1125.96256,48.0618523 1124.88673,48.4003906 1123.44141,48.4003906 C1121.88541,48.4003906 1120.78353,48.0472041 1120.13574,47.3408203 C1119.48795,46.6344366 1119.14128,45.7604219 1119.0957,44.71875 L1120.78516,44.71875 Z M1185.58984,33.6542969 L1187.55273,33.6542969 L1187.55273,39.5820312 L1195.01367,39.5820312 L1195.01367,33.6542969 L1196.97656,33.6542969 L1196.97656,48 L1195.01367,48 L1195.01367,41.2910156 L1187.55273,41.2910156 L1187.55273,48 L1185.58984,48 L1185.58984,33.6542969 Z M1204.10547,37.3066406 C1204.84766,37.3066406 1205.56705,37.4807925 1206.26367,37.8291016 C1206.96029,38.1774106 1207.49088,38.6282524 1207.85547,39.1816406 C1208.20703,39.708987 1208.44141,40.3242152 1208.55859,41.0273438 C1208.66276,41.509117 1208.71484,42.2773385 1208.71484,43.3320312 L1201.04883,43.3320312 C1201.08138,44.3932345 1201.33203,45.2444629 1201.80078,45.8857422 C1202.26953,46.5270214 1202.99544,46.8476562 1203.97852,46.8476562 C1204.89649,46.8476562 1205.6289,46.5449249 1206.17578,45.9394531 C1206.48828,45.5878889 1206.70963,45.1809919 1206.83984,44.71875 L1208.56836,44.71875 C1208.52279,45.1028665 1208.37142,45.5309221 1208.11426,46.0029297 C1207.8571,46.4749373 1207.56901,46.8606756 1207.25,47.1601562 C1206.71614,47.6809922 1206.05534,48.0325512 1205.26758,48.2148438 C1204.8444,48.3190109 1204.36589,48.3710938 1203.83203,48.3710938 C1202.52994,48.3710938 1201.42644,47.8974657 1200.52148,46.9501953 C1199.61653,46.002925 1199.16406,44.6764408 1199.16406,42.9707031 C1199.16406,41.2910072 1199.61979,39.9270886 1200.53125,38.8789062 C1201.44271,37.8307239 1202.63411,37.3066406 1204.10547,37.3066406 Z M1206.9082,41.9355469 C1206.83659,41.1738243 1206.67057,40.5651064 1206.41016,40.109375 C1205.92838,39.2630166 1205.12435,38.8398438 1203.99805,38.8398438 C1203.19075,38.8398438 1202.51367,39.131182 1201.9668,39.7138672 C1201.41992,40.2965524 1201.13021,41.0371049 1201.09766,41.9355469 L1206.9082,41.9355469 Z M1210.92188,33.6542969 L1212.67969,33.6542969 L1212.67969,48 L1210.92188,48 L1210.92188,33.6542969 Z M1219.73047,46.8183594 C1220.55079,46.8183594 1221.23274,46.4749383 1221.77637,45.7880859 C1222.31999,45.1012335 1222.5918,44.0742256 1222.5918,42.7070312 C1222.5918,41.8736938 1222.47136,41.1575551 1222.23047,40.5585938 C1221.77474,39.4062442 1220.94141,38.8300781 1219.73047,38.8300781 C1218.51301,38.8300781 1217.67969,39.438796 1217.23047,40.65625 C1216.98958,41.3072949 1216.86914,42.1341096 1216.86914,43.1367188 C1216.86914,43.9440145 1216.98958,44.6308565 1217.23047,45.1972656 C1217.6862,46.2780002 1218.51953,46.8183594 1219.73047,46.8183594 Z M1215.17969,37.5898438 L1216.88867,37.5898438 L1216.88867,38.9765625 C1217.24024,38.5012997 1217.62435,38.1334648 1218.04102,37.8730469 C1218.63347,37.4824199 1219.33007,37.2871094 1220.13086,37.2871094 C1221.31576,37.2871094 1222.32161,37.7412064 1223.14844,38.6494141 C1223.97526,39.5576217 1224.38867,40.8548093 1224.38867,42.5410156 C1224.38867,44.8196729 1223.79297,46.4472607 1222.60156,47.4238281 C1221.84635,48.0423208 1220.96745,48.3515625 1219.96484,48.3515625 C1219.17708,48.3515625 1218.51628,48.1790382 1217.98242,47.8339844 C1217.66992,47.6386709 1217.32162,47.3033878 1216.9375,46.828125 L1216.9375,52.1699219 L1215.17969,52.1699219 L1215.17969,37.5898438 Z M1234.33984,33.6542969 L1234.33984,42.5214844 C1234.33984,43.5631562 1234.53515,44.429033 1234.92578,45.1191406 C1235.50521,46.1608125 1236.48176,46.6816406 1237.85547,46.6816406 C1239.50261,46.6816406 1240.62239,46.1184952 1241.21484,44.9921875 C1241.53386,44.3802053 1241.69336,43.5566458 1241.69336,42.5214844 L1241.69336,33.6542969 L1243.66602,33.6542969 L1243.66602,41.7109375 C1243.66602,43.4752692 1243.42839,44.8326775 1242.95312,45.7832031 C1242.08072,47.5149826 1240.43361,48.3808594 1238.01172,48.3808594 C1235.58983,48.3808594 1233.94597,47.5149826 1233.08008,45.7832031 C1232.60482,44.8326775 1232.36719,43.4752692 1232.36719,41.7109375 L1232.36719,33.6542969 L1234.33984,33.6542969 Z M1247.48438,44.71875 C1247.53646,45.3046904 1247.68294,45.7539047 1247.92383,46.0664062 C1248.36654,46.6328153 1249.13476,46.9160156 1250.22852,46.9160156 C1250.87956,46.9160156 1251.45247,46.7744155 1251.94727,46.4912109 C1252.44206,46.2080064 1252.68945,45.7701853 1252.68945,45.1777344 C1252.68945,44.7285134 1252.49089,44.3867199 1252.09375,44.1523438 C1251.83984,44.0091139 1251.33855,43.8430999 1250.58984,43.6542969 L1249.19336,43.3027344 C1248.30143,43.0813791 1247.64388,42.8339857 1247.2207,42.5605469 C1246.46549,42.0852841 1246.08789,41.4277386 1246.08789,40.5878906 C1246.08789,39.5983023 1246.44433,38.7975291 1247.15723,38.1855469 C1247.87012,37.5735646 1248.82877,37.2675781 1250.0332,37.2675781 C1251.60873,37.2675781 1252.74479,37.7298131 1253.44141,38.6542969 C1253.87761,39.2402373 1254.08919,39.8717414 1254.07617,40.5488281 L1252.41602,40.5488281 C1252.38346,40.1516907 1252.24349,39.7903662 1251.99609,39.4648438 C1251.59245,39.0026019 1250.89258,38.7714844 1249.89648,38.7714844 C1249.23242,38.7714844 1248.72949,38.8984362 1248.3877,39.1523438 C1248.0459,39.4062513 1247.875,39.7415344 1247.875,40.1582031 C1247.875,40.6139346 1248.09961,40.9785143 1248.54883,41.2519531 C1248.80925,41.4147144 1249.19336,41.5579421 1249.70117,41.6816406 L1250.86328,41.9648438 C1252.12631,42.2708349 1252.97265,42.5670559 1253.40234,42.8535156 C1254.08594,43.3027366 1254.42773,44.0091098 1254.42773,44.9726562 C1254.42773,45.9036505 1254.07455,46.7076789 1253.36816,47.3847656 C1252.66178,48.0618523 1251.58594,48.4003906 1250.14062,48.4003906 C1248.58463,48.4003906 1247.48275,48.0472041 1246.83496,47.3408203 C1246.18717,46.6344366 1245.8405,45.7604219 1245.79492,44.71875 L1247.48438,44.71875 Z M1323.30469,46.3398438 C1323.96224,46.3398438 1324.5026,46.2714851 1324.92578,46.1347656 C1325.68099,45.8808581 1326.29948,45.3925817 1326.78125,44.6699219 C1327.16537,44.0904919 1327.44206,43.3483118 1327.61133,42.4433594 C1327.70898,41.9029921 1327.75781,41.401695 1327.75781,40.9394531 C1327.75781,39.1621005 1327.40463,37.781906 1326.69824,36.7988281 C1325.99186,35.8157503 1324.85417,35.3242188 1323.28516,35.3242188 L1319.83789,35.3242188 L1319.83789,46.3398438 L1323.30469,46.3398438 Z M1317.88477,33.6542969 L1323.69531,33.6542969 C1325.66798,33.6542969 1327.19791,34.3541597 1328.28516,35.7539062 C1329.25521,37.0169334 1329.74023,38.6347558 1329.74023,40.6074219 C1329.74023,42.130867 1329.45378,43.5078063 1328.88086,44.7382812 C1327.87174,46.9127713 1326.13673,48 1323.67578,48 L1317.88477,48 L1317.88477,33.6542969 Z M1336.15625,46.8671875 C1337.32162,46.8671875 1338.12077,46.4261112 1338.55371,45.5439453 C1338.98666,44.6617794 1339.20312,43.6803439 1339.20312,42.5996094 C1339.20312,41.623042 1339.04688,40.8287791 1338.73438,40.2167969 C1338.23958,39.2532504 1337.38672,38.7714844 1336.17578,38.7714844 C1335.10156,38.7714844 1334.32031,39.1816365 1333.83203,40.0019531 C1333.34375,40.8222697 1333.09961,41.8118432 1333.09961,42.9707031 C1333.09961,44.0839899 1333.34375,45.011715 1333.83203,45.7539062 C1334.32031,46.4960975 1335.09505,46.8671875 1336.15625,46.8671875 Z M1336.22461,37.2382812 C1337.57227,37.2382812 1338.71158,37.6874955 1339.64258,38.5859375 C1340.57357,39.4843795 1341.03906,40.8059809 1341.03906,42.5507812 C1341.03906,44.2369876 1340.62891,45.6302028 1339.80859,46.7304688 C1338.98828,47.8307347 1337.7155,48.3808594 1335.99023,48.3808594 C1334.55143,48.3808594 1333.40886,47.8942106 1332.5625,46.9208984 C1331.71614,45.9475863 1331.29297,44.6406332 1331.29297,43 C1331.29297,41.2421787 1331.73893,39.8424531 1332.63086,38.8007812 C1333.52279,37.7591094 1334.7207,37.2382812 1336.22461,37.2382812 Z M1343.12891,37.5410156 L1344.79883,37.5410156 L1344.79883,39.0253906 C1345.29362,38.4134084 1345.81771,37.9739597 1346.37109,37.7070312 C1346.92448,37.4401028 1347.53971,37.3066406 1348.2168,37.3066406 C1349.70118,37.3066406 1350.70377,37.8242136 1351.22461,38.859375 C1351.51107,39.4257841 1351.6543,40.2363229 1351.6543,41.2910156 L1351.6543,48 L1349.86719,48 L1349.86719,41.4082031 C1349.86719,40.7701791 1349.77279,40.2558613 1349.58398,39.8652344 C1349.27148,39.2141895 1348.70508,38.8886719 1347.88477,38.8886719 C1347.4681,38.8886719 1347.1263,38.9309892 1346.85938,39.015625 C1346.3776,39.1588549 1345.95443,39.4453104 1345.58984,39.875 C1345.29687,40.2200538 1345.10645,40.5764956 1345.01855,40.9443359 C1344.93066,41.3121763 1344.88672,41.8378872 1344.88672,42.5214844 L1344.88672,48 L1343.12891,48 L1343.12891,37.5410156 Z M1355.59961,45.2167969 C1355.59961,45.7246119 1355.78515,46.1249985 1356.15625,46.4179688 C1356.52735,46.710939 1356.96679,46.8574219 1357.47461,46.8574219 C1358.0931,46.8574219 1358.69205,46.7141941 1359.27148,46.4277344 C1360.24805,45.9524716 1360.73633,45.1744846 1360.73633,44.09375 L1360.73633,42.6777344 C1360.52148,42.8144538 1360.24479,42.928385 1359.90625,43.0195312 C1359.56771,43.1106775 1359.23568,43.1757811 1358.91016,43.2148438 L1357.8457,43.3515625 C1357.20768,43.4361983 1356.72917,43.5696605 1356.41016,43.7519531 C1355.86979,44.0579442 1355.59961,44.5462206 1355.59961,45.2167969 Z M1359.85742,41.6621094 C1360.26107,41.6100258 1360.53125,41.4407566 1360.66797,41.1542969 C1360.74609,40.9980461 1360.78516,40.773439 1360.78516,40.4804688 C1360.78516,39.8815074 1360.57194,39.4469415 1360.14551,39.1767578 C1359.71907,38.9065742 1359.10873,38.7714844 1358.31445,38.7714844 C1357.39648,38.7714844 1356.74544,39.0188777 1356.36133,39.5136719 C1356.14648,39.7871107 1356.00651,40.1940077 1355.94141,40.734375 L1354.30078,40.734375 C1354.33333,39.4453061 1354.75162,38.5485051 1355.55566,38.0439453 C1356.3597,37.5393855 1357.29231,37.2871094 1358.35352,37.2871094 C1359.58399,37.2871094 1360.58333,37.521482 1361.35156,37.9902344 C1362.11329,38.4589867 1362.49414,39.1881461 1362.49414,40.1777344 L1362.49414,46.203125 C1362.49414,46.3854176 1362.53158,46.5319005 1362.60645,46.6425781 C1362.68132,46.7532558 1362.83919,46.8085938 1363.08008,46.8085938 C1363.1582,46.8085938 1363.24609,46.803711 1363.34375,46.7939453 C1363.44141,46.7841796 1363.54557,46.7695313 1363.65625,46.75 L1363.65625,48.0488281 C1363.38281,48.1269535 1363.17448,48.1757812 1363.03125,48.1953125 C1362.88802,48.2148438 1362.69271,48.2246094 1362.44531,48.2246094 C1361.83984,48.2246094 1361.40039,48.0097678 1361.12695,47.5800781 C1360.98372,47.3522124 1360.88281,47.02995 1360.82422,46.6132812 C1360.46614,47.0820336 1359.95183,47.4889306 1359.28125,47.8339844 C1358.61067,48.1790382 1357.87175,48.3515625 1357.06445,48.3515625 C1356.0944,48.3515625 1355.30176,48.0569691 1354.68652,47.4677734 C1354.07129,46.8785778 1353.76367,46.1412805 1353.76367,45.2558594 C1353.76367,44.2858024 1354.0664,43.5338568 1354.67188,43 C1355.27735,42.4661432 1356.07161,42.1373704 1357.05469,42.0136719 L1359.85742,41.6621094 Z M1365.72656,34.6210938 L1367.50391,34.6210938 L1367.50391,37.5410156 L1369.17383,37.5410156 L1369.17383,38.9765625 L1367.50391,38.9765625 L1367.50391,45.8027344 C1367.50391,46.1673195 1367.6276,46.4114577 1367.875,46.5351562 C1368.01172,46.6067712 1368.23958,46.6425781 1368.55859,46.6425781 C1368.64323,46.6425781 1368.73437,46.6409505 1368.83203,46.6376953 C1368.92969,46.6344401 1369.04362,46.6263021 1369.17383,46.6132812 L1369.17383,48 C1368.972,48.058594 1368.76205,48.1009113 1368.54395,48.1269531 C1368.32585,48.1529949 1368.08985,48.1660156 1367.83594,48.1660156 C1367.01562,48.1660156 1366.45899,47.9560568 1366.16602,47.5361328 C1365.87305,47.1162088 1365.72656,46.5709669 1365.72656,45.9003906 L1365.72656,38.9765625 L1364.31055,38.9765625 L1364.31055,37.5410156 L1365.72656,37.5410156 L1365.72656,34.6210938 Z M1375.28711,37.3066406 C1376.0293,37.3066406 1376.74869,37.4807925 1377.44531,37.8291016 C1378.14193,38.1774106 1378.67252,38.6282524 1379.03711,39.1816406 C1379.38867,39.708987 1379.62305,40.3242152 1379.74023,41.0273438 C1379.8444,41.509117 1379.89648,42.2773385 1379.89648,43.3320312 L1372.23047,43.3320312 C1372.26302,44.3932345 1372.51367,45.2444629 1372.98242,45.8857422 C1373.45117,46.5270214 1374.17708,46.8476562 1375.16016,46.8476562 C1376.07813,46.8476562 1376.81054,46.5449249 1377.35742,45.9394531 C1377.66992,45.5878889 1377.89128,45.1809919 1378.02148,44.71875 L1379.75,44.71875 C1379.70443,45.1028665 1379.55306,45.5309221 1379.2959,46.0029297 C1379.03874,46.4749373 1378.75065,46.8606756 1378.43164,47.1601562 C1377.89778,47.6809922 1377.23698,48.0325512 1376.44922,48.2148438 C1376.02604,48.3190109 1375.54753,48.3710938 1375.01367,48.3710938 C1373.71158,48.3710938 1372.60808,47.8974657 1371.70312,46.9501953 C1370.79817,46.002925 1370.3457,44.6764408 1370.3457,42.9707031 C1370.3457,41.2910072 1370.80143,39.9270886 1371.71289,38.8789062 C1372.62435,37.8307239 1373.81575,37.3066406 1375.28711,37.3066406 Z M1378.08984,41.9355469 C1378.01823,41.1738243 1377.85221,40.5651064 1377.5918,40.109375 C1377.11002,39.2630166 1376.306,38.8398438 1375.17969,38.8398438 C1374.37239,38.8398438 1373.69532,39.131182 1373.14844,39.7138672 C1372.60156,40.2965524 1372.31185,41.0371049 1372.2793,41.9355469 L1378.08984,41.9355469 Z" id="Home-About-Contact-U" fill="#000000"></path>
        <text id="Global-HELP" font-family="Helvetica" font-size="30" font-weight="normal" fill="#000000">
            <tspan x="110" y="49">Global HELP</tspan>
        </text>
        <g id="Rectangle-3">
            <use fill="#E4E2E2" fill-rule="evenodd" xlink:href="#path-4"></use>
            <rect stroke="#979797" stroke-width="3" x="29.5" y="745.5" width="677" height="221"></rect>
        </g>
        <text id="Free,-relevant-medic" font-family="Helvetica" font-size="64" font-weight="normal" fill="#000000">
            <tspan x="236.234375" y="271">Free, relevant medical information</tspan>
            <tspan x="282.421875" y="348">for anyone, anywhere, anytime</tspan>
        </text>
        <g id="Rectangle-2">
            <use fill="#E9E9E9" fill-rule="evenodd" xlink:href="#path-5"></use>
            <rect stroke="#979797" stroke-width="1" x="238.5" y="457.5" width="964" height="101"></rect>
        </g>
        <text id="New-&amp;-Featured" font-family="Helvetica-Light, Helvetica" font-size="36" font-weight="300" fill="#000000">
            <tspan x="93" y="866">New &amp; Featured</tspan>
        </text>
        <text id="Find-a-publication-o" font-family="Helvetica-Light, Helvetica" font-size="36" font-weight="300" fill="#575757">
            <tspan x="379.426" y="522">Find a publication or video</tspan>
        </text>
        <rect id="Rectangle-3" fill="#BEBEBE" x="0" y="1489" width="1440" height="600"></rect>
        <text id="Our-mission-is-to-pr" font-family="Helvetica-Light, Helvetica" font-size="30" font-weight="300" fill="#000000">
            <tspan x="110" y="1648">Our mission is to provide free, relevant, </tspan>
            <tspan x="110" y="1684">high-quality medical information that is </tspan>
            <tspan x="110" y="1720">suitable for worldwide use.</tspan>
            <tspan x="110" y="1756"></tspan>
            <tspan x="110" y="1792">Global HELP is a 501(c)(3) nonprofit </tspan>
            <tspan x="110" y="1828">organization. Click here to find out how you </tspan>
            <tspan x="110" y="1864">can help us!</tspan>
        </text>
        <g id="Magnifying-Glass" transform="translate(276.000000, 482.000000)" stroke="#000000" stroke-width="6">
            <circle id="Oval" cx="34" cy="17" r="17"></circle>
            <path d="M22.5,29.5 L1.5,50.5" id="Line-2" stroke-linecap="square"></path>
        </g>
        <g id="Group" transform="translate(414.000000, 747.000000)">
            <rect id="Rectangle-2" fill="#F7F5F5" x="0" y="0" width="290" height="218"></rect>
            <text id="IMAGE" font-family="Helvetica" font-size="36" font-weight="normal" fill="#000000">
                <tspan x="89.4921875" y="117.615385">IMAGE</tspan>
            </text>
        </g>
        <g id="Rectangle-3">
            <use fill="#E4E2E2" fill-rule="evenodd" xlink:href="#path-6"></use>
            <rect stroke="#979797" stroke-width="3" x="731.5" y="745.5" width="677" height="221"></rect>
        </g>
        <text id="Pediatrics" font-family="Helvetica-Light, Helvetica" font-size="36" font-weight="300" fill="#000000">
            <tspan x="795" y="866">Pediatrics</tspan>
        </text>
        <g id="Group" transform="translate(1116.000000, 747.000000)">
            <rect id="Rectangle-2" fill="#F7F5F5" x="0" y="0" width="290" height="218"></rect>
            <text id="IMAGE" font-family="Helvetica" font-size="36" font-weight="normal" fill="#000000">
                <tspan x="89.4921875" y="117.615385">IMAGE</tspan>
            </text>
        </g>
        <g id="Rectangle-3">
            <use fill="#E4E2E2" fill-rule="evenodd" xlink:href="#path-7"></use>
            <rect stroke="#979797" stroke-width="3" x="29.5" y="991.5" width="677" height="221"></rect>
        </g>
        <text id="Surgery" font-family="Helvetica-Light, Helvetica" font-size="36" font-weight="300" fill="#000000">
            <tspan x="93" y="1111">Surgery</tspan>
        </text>
        <g id="Group" transform="translate(414.000000, 993.000000)">
            <rect id="Rectangle-2" fill="#F7F5F5" x="0" y="0" width="290" height="218"></rect>
            <text id="IMAGE" font-family="Helvetica" font-size="36" font-weight="normal" fill="#000000">
                <tspan x="89.4921875" y="117.615385">IMAGE</tspan>
            </text>
        </g>
        <g id="Rectangle-3">
            <use fill="#E4E2E2" fill-rule="evenodd" xlink:href="#path-8"></use>
            <rect stroke="#979797" stroke-width="3" x="731.5" y="991.5" width="677" height="221"></rect>
        </g>
        <text id="Pediatric-Orthopedic" font-family="Helvetica-Light, Helvetica" font-size="36" font-weight="300" fill="#000000">
            <tspan x="795" y="1092">Pediatric </tspan>
            <tspan x="795" y="1135">Orthopedics</tspan>
        </text>
        <g id="Group" transform="translate(1116.000000, 993.000000)">
            <rect id="Rectangle-2" fill="#F7F5F5" x="0" y="0" width="290" height="218"></rect>
            <text id="IMAGE" font-family="Helvetica" font-size="36" font-weight="normal" fill="#000000">
                <tspan x="89.4921875" y="117.615385">IMAGE</tspan>
            </text>
        </g>
        <g id="Rectangle-3">
            <use fill="#E4E2E2" fill-rule="evenodd" xlink:href="#path-9"></use>
            <rect stroke="#979797" stroke-width="3" x="29.5" y="1239.5" width="677" height="221"></rect>
        </g>
        <text id="History-of-Medicine" font-family="Helvetica-Light, Helvetica" font-size="36" font-weight="300" fill="#000000">
            <tspan x="93" y="1341">History of </tspan>
            <tspan x="93" y="1384">Medicine</tspan>
        </text>
        <g id="Group" transform="translate(414.000000, 1241.000000)">
            <rect id="Rectangle-2" fill="#F7F5F5" x="0" y="0" width="290" height="218"></rect>
            <text id="IMAGE" font-family="Helvetica" font-size="36" font-weight="normal" fill="#000000">
                <tspan x="89.4921875" y="117.615385">IMAGE</tspan>
            </text>
        </g>
        <g id="Rectangle-3">
            <use fill="#E4E2E2" fill-rule="evenodd" xlink:href="#path-10"></use>
            <rect stroke="#979797" stroke-width="3" x="731.5" y="1239.5" width="677" height="221"></rect>
        </g>
        <text id="For-Families" font-family="Helvetica-Light, Helvetica" font-size="36" font-weight="300" fill="#000000">
            <tspan x="795" y="1360">For Families</tspan>
        </text>
        <g id="Group" transform="translate(1116.000000, 1241.000000)">
            <rect id="Rectangle-2" fill="#F7F5F5" x="0" y="0" width="290" height="218"></rect>
            <text id="IMAGE" font-family="Helvetica" font-size="36" font-weight="normal" fill="#000000">
                <tspan x="89.4921875" y="117.615385">IMAGE</tspan>
            </text>
        </g>
        <text id="Contact-Us-News-&amp;-Ev" font-family="Helvetica" font-size="22" font-weight="normal" fill="#000000">
            <tspan x="1185" y="1640">Contact Us</tspan>
            <tspan x="1185" y="1666"></tspan>
            <tspan x="1185" y="1692">News &amp; Events</tspan>
            <tspan x="1185" y="1718"></tspan>
            <tspan x="1185" y="1744">Help us</tspan>
            <tspan x="1185" y="1770"></tspan>
            <tspan x="1185" y="1796">Donate</tspan>
        </text>
        <text id="Mission-Story-Boards" font-family="Helvetica" font-size="22" font-weight="normal" fill="#000000">
            <tspan x="874" y="1640">Mission</tspan>
            <tspan x="874" y="1666"></tspan>
            <tspan x="874" y="1692">Story</tspan>
            <tspan x="874" y="1718"></tspan>
            <tspan x="874" y="1744">Boards &amp; Staff</tspan>
            <tspan x="874" y="1770"></tspan>
            <tspan x="874" y="1796">Authors &amp; </tspan>
            <tspan x="874" y="1822">Translators</tspan>
            <tspan x="874" y="1848"></tspan>
            <tspan x="874" y="1874">Friends of HELP</tspan>
            <tspan x="874" y="1900"></tspan>
        </text>
        <path d="M34.5,1583 L1405.54413,1583" id="Line" stroke="#FFFFFF" stroke-width="2" stroke-linecap="square"></path>
        <text id="Slow-internet?-Order" font-family="Helvetica" font-size="24" font-weight="normal" line-spacing="40" fill="#000000">
            <tspan x="106" y="1544">Slow internet? Order a USB Flash Drive library  &gt;</tspan>
        </text>
        <path d="M34.5,1998 L1405.54413,1998" id="Line" stroke="#FFFFFF" stroke-width="2" stroke-linecap="square"></path>
        <text id="Copyright-2017-Globa" font-family="Helvetica" font-size="18" font-weight="normal" fill="#000000">
            <tspan x="546" y="2048">Copyright 2017 Global HELP | Privacy Policy</tspan>
        </text>
    </g>
</svg>