<?xml version="1.0" encoding="UTF-8"?>
<svg width="148px" height="78px" viewBox="0 0 148 78" version="1.1" xmlns="http://www.w3.org/2000/svg" xmlns:xlink="http://www.w3.org/1999/xlink">
    <!-- Generator: Sketch 51.2 (57519) - http://www.bohemiancoding.com/sketch -->
    <title>Group 3</title>
    <desc>Created with Sketch.</desc>
    <defs></defs>
    <g id="Portfolio" stroke="none" stroke-width="1" fill="none" fill-rule="evenodd">
        <g id="Desktop-HD" transform="translate(-97.000000, -42.000000)" fill="#FFFFFF">
            <g id="Group-3" transform="translate(97.000000, 42.000000)">
                <path d="M61,18.7692308 L61,2.31623932 L69.5909091,2.31623932 C71.1818261,2.31623932 72.3175471,2.62335875 72.9981061,3.23760684 C73.678665,3.85185492 74.0189394,4.74688871 74.0189394,5.92273504 C74.0189394,7.09858138 73.8024012,8.00677742 73.3693182,8.64735043 C72.9362352,9.28792343 72.3573269,9.70472838 71.6325758,9.89777778 L71.6325758,10.0557265 C73.7714753,10.4242753 74.8409091,11.8721241 74.8409091,14.3993162 C74.8409091,15.7155621 74.4873773,16.7729305 73.780303,17.571453 C73.0732288,18.3699755 71.9861184,18.7692308 70.5189394,18.7692308 L61,18.7692308 Z M68.4327731,12.1880342 L66.2727273,12.1880342 L66.2727273,14.8205128 L68.4050802,14.8205128 C69.1804852,14.8205128 69.5681818,14.3817708 69.5681818,13.5042735 C69.5681818,12.6267762 69.189716,12.1880342 68.4327731,12.1880342 Z M67.9336364,6.26495726 L66.2727273,6.26495726 L66.2727273,8.8974359 L67.9072727,8.8974359 C68.5751549,8.8974359 68.9090909,8.45869385 68.9090909,7.58119658 C68.9090909,6.70369932 68.5839426,6.26495726 67.9336364,6.26495726 Z M77.4772727,6.00937682 L80.1973304,6.00937682 L81.6933622,7.51218986 C82.7632569,6.54609093 84.1051386,5.91097986 85.7190476,5.60683761 L86.0454545,10.6788316 C85.6102431,10.6967224 85.0435701,10.8040651 84.3454185,11.000863 C83.6472668,11.1976609 83.1712615,11.4481273 82.9173882,11.7522695 L82.9173882,19.4273504 L77.4772727,19.4273504 L77.4772727,6.00937682 Z M88.6818182,18.7692308 L88.6818182,6.26495726 L93.9545455,5.60683761 L93.9545455,18.7692308 L88.6818182,18.7692308 Z M89.26702,5.11736111 C88.8768835,4.79104182 88.6818182,4.19599791 88.6818182,3.33221154 C88.6818182,2.46842517 88.8813168,1.86378378 89.28032,1.51826923 C89.6793232,1.17275468 90.4684511,1 91.6477273,1 C92.8270035,1 93.6161313,1.17275468 94.0151345,1.51826923 C94.4141377,1.86378378 94.6136364,2.46842517 94.6136364,3.33221154 C94.6136364,4.19599791 94.4141377,4.79104182 94.0151345,5.11736111 C93.6161313,5.44368041 92.8270035,5.60683761 91.6477273,5.60683761 C90.4684511,5.60683761 89.6748899,5.44368041 89.26702,5.11736111 Z M96.5909091,9.2300892 L96.5909091,5.78651146 L97.9338843,5.78651146 L97.9338843,3.65095937 L103.305785,2.31623932 L103.305785,5.78651146 L105.159091,5.78651146 L105.159091,9.2300892 L103.305785,9.2300892 L103.305785,15.3164127 C103.771352,15.4053944 104.299584,15.4676808 104.890496,15.5032735 L104.64876,19.4273504 C102.19558,19.4273504 100.601932,19.2938798 99.8677686,19.0269344 C98.9545409,18.7066 98.3815439,18.2794938 98.1487603,17.7456032 C98.0055089,17.4252687 97.9338843,17.0515509 97.9338843,16.6244383 L97.9338843,9.2300892 L96.5909091,9.2300892 Z M114.489347,5.60683761 C118.814652,5.60683761 120.977273,7.10932218 120.977273,10.1143364 L120.977273,19.6756975 L118.27397,19.6756975 L116.733088,18.1185615 C116.210447,18.7377766 115.498584,19.2203928 114.597479,19.5664248 C113.696373,19.9124567 112.844842,20.0854701 112.042858,20.0854701 C111.240874,20.0854701 110.596593,20.0217283 110.109996,19.8942429 C109.6234,19.7667574 109.145821,19.5482142 108.677246,19.2386067 C107.649986,18.5829672 107.136364,17.3627676 107.136364,15.5779713 C107.136364,12.299774 109.587333,10.6606999 114.489347,10.6606999 L115.570668,10.6606999 L115.570668,9.67724561 C114.99396,9.64082119 114.516382,9.62260926 114.137917,9.62260926 C112.101419,9.62260926 110.353301,9.86847037 108.89351,10.3602 L108.244718,6.45370102 C110.046928,5.88912259 112.128451,5.60683761 114.489347,5.60683761 Z M113.068182,14.5033467 L113.068182,15.4786325 L114.050826,15.4786325 C114.75386,15.4786325 115.205233,15.3993417 115.404959,15.2407579 C115.604684,15.0821741 115.704545,14.8760182 115.704545,14.622284 L115.704545,13.5042735 L114.721901,13.5042735 C114.146691,13.5042735 113.727274,13.5637416 113.463636,13.6826794 C113.199999,13.8016173 113.068182,14.0751703 113.068182,14.5033467 Z M71.0241196,45.7521368 L66.8451269,39.9080342 C66.6994533,39.7149848 66.6084086,39.2937924 66.5719902,38.6444444 L66.4627355,38.6444444 L66.4627355,45.7521368 L61,45.7521368 L61,29.2991453 L66.1349713,29.2991453 L70.313964,35.1432479 C70.4596376,35.3362973 70.5506823,35.7574896 70.5871007,36.4068376 L70.6963554,36.4068376 L70.6963554,29.2991453 L76.1590909,29.2991453 L76.1590909,45.7521368 L71.0241196,45.7521368 Z M84.6303476,42.0145138 L84.6303476,42.9706499 C85.1731311,43.0252865 85.7159064,43.0526044 86.2586898,43.0526044 C87.9413186,43.0526044 89.6420146,42.7794254 91.3608289,42.2330592 L92.0121658,46.2488308 C89.9857742,46.7951971 87.9775055,47.0683761 85.9872995,47.0683761 C83.45431,47.0683761 81.6224433,46.4719352 80.4916444,45.2790356 C79.3608455,44.0861361 78.7954545,42.2694956 78.7954545,39.8290598 C78.7954545,37.388624 79.3608455,35.5719836 80.4916444,34.379084 C81.6224433,33.1861844 83.4497868,32.5897436 85.9737299,32.5897436 C88.497673,32.5897436 90.2390772,32.9357703 91.1979947,33.6278342 C92.1569121,34.3198981 92.6363636,35.6129454 92.6363636,37.507015 C92.6363636,39.1096892 92.0619264,40.2615941 90.9130348,40.9627641 C89.7641431,41.6639341 87.669935,42.0145138 84.6303476,42.0145138 Z M84.7272727,37.5375348 L84.7272727,38.5128205 L85.7099174,38.5128205 C86.2851268,38.5128205 86.7045441,38.4533525 86.9681818,38.3344146 C87.2318195,38.2154767 87.3636364,37.9419237 87.3636364,37.5137473 L87.3636364,36.5384615 L86.3809917,36.5384615 C85.8057822,36.5384615 85.386365,36.5979296 85.1227273,36.7168675 C84.8590896,36.8358054 84.7272727,37.1093584 84.7272727,37.5375348 Z M96.5867983,33.5458797 C97.7743555,32.9084524 99.3912359,32.5897436 101.437488,32.5897436 C103.48374,32.5897436 105.365534,32.8720286 107.082924,33.436607 L106.452608,37.1518787 C105.02754,36.7512102 103.602492,36.5508789 102.177424,36.5508789 C101.738941,36.5508789 101.117767,36.5873028 100.313882,36.6601516 L100.313882,37.5343332 C103.27364,37.5343332 105.283322,37.9714196 106.342988,38.8456055 C106.872821,39.2826985 107.247353,39.7607618 107.466594,40.2798097 C107.685836,40.7988576 107.795455,41.4271693 107.795455,42.1647637 C107.795455,42.9023581 107.708673,43.5625408 107.535107,44.1453314 C107.361541,44.728122 107.096628,45.1925264 106.740361,45.5385583 C106.384094,45.8845902 106.01413,46.1668752 105.630457,46.3854217 C105.246785,46.6039682 104.744365,46.7587696 104.123181,46.8498307 C103.154865,46.9955283 102.03127,47.0683761 100.752363,47.0683761 C98.4868689,47.0683761 96.4406473,46.804303 94.6136364,46.276149 L95.298762,42.3969682 C96.8334513,42.8704856 98.4960063,43.1072408 100.286477,43.1072408 C101.108632,43.1072408 101.857695,43.0708169 102.533689,42.9979681 L102.533689,42.1237865 C99.6104717,42.1237865 97.5962224,41.7413359 96.4908807,40.9764232 C95.3855391,40.2115104 94.8328766,38.941228 94.8328766,37.1655378 C94.8328766,35.3898476 95.4175113,34.183307 96.5867983,33.5458797 Z M111.745889,33.5458797 C112.933446,32.9084524 114.550327,32.5897436 116.596579,32.5897436 C118.642831,32.5897436 120.524624,32.8720286 122.242015,33.436607 L121.611699,37.1518787 C120.186631,36.7512102 118.761583,36.5508789 117.336515,36.5508789 C116.898032,36.5508789 116.276858,36.5873028 115.472973,36.6601516 L115.472973,37.5343332 C118.432731,37.5343332 120.442413,37.9714196 121.502079,38.8456055 C122.031912,39.2826985 122.406444,39.7607618 122.625685,40.2798097 C122.844926,40.7988576 122.954545,41.4271693 122.954545,42.1647637 C122.954545,42.9023581 122.867764,43.5625408 122.694198,44.1453314 C122.520632,44.728122 122.255719,45.1925264 121.899452,45.5385583 C121.543185,45.8845902 121.173221,46.1668752 120.789548,46.3854217 C120.405876,46.6039682 119.903456,46.7587696 119.282272,46.8498307 C118.313956,46.9955283 117.190361,47.0683761 115.911453,47.0683761 C113.64596,47.0683761 111.599738,46.804303 109.772727,46.276149 L110.457853,42.3969682 C111.992542,42.8704856 113.655097,43.1072408 115.445568,43.1072408 C116.267723,43.1072408 117.016786,43.0708169 117.69278,42.9979681 L117.69278,42.1237865 C114.769563,42.1237865 112.755313,41.7413359 111.649972,40.9764232 C110.54463,40.2115104 109.991967,38.941228 109.991967,37.1655378 C109.991967,35.3898476 110.576602,34.183307 111.745889,33.5458797 Z M61,73.3931624 L61,56.9401709 L68.3818182,56.9401709 C71.3521361,56.9401709 73.3909036,57.5719595 74.4981818,58.8355556 C75.6054601,60.0991516 76.1590909,62.2095009 76.1590909,65.1666667 C76.1590909,68.1238324 75.6054601,70.2341817 74.4981818,71.4977778 C73.3909036,72.7613738 71.3521361,73.3931624 68.3818182,73.3931624 L61,73.3931624 Z M68.6511858,60.8888889 L66.2727273,60.8888889 L66.2727273,68.7863248 L68.6511858,68.7863248 C69.4344571,68.7863248 70.002798,68.7043304 70.3562253,68.5403391 C70.7096526,68.3763478 70.8863636,68.0008997 70.8863636,67.4139835 L70.8863636,62.2612302 C70.8863636,61.674314 70.7096526,61.2988659 70.3562253,61.1348746 C70.002798,60.9708833 69.4344571,60.8888889 68.6511858,60.8888889 Z M84.6303476,68.9974198 L84.6303476,69.9535559 C85.1731311,70.0081925 85.7159064,70.0355104 86.2586898,70.0355104 C87.9413186,70.0355104 89.6420146,69.7623314 91.3608289,69.2159652 L92.0121658,73.2317368 C89.9857742,73.778103 87.9775055,74.0512821 85.9872995,74.0512821 C83.45431,74.0512821 81.6224433,73.4548412 80.4916444,72.2619416 C79.3608455,71.069042 78.7954545,69.2524016 78.7954545,66.8119658 C78.7954545,64.37153 79.3608455,62.5548896 80.4916444,61.36199 C81.6224433,60.1690904 83.4497868,59.5726496 85.9737299,59.5726496 C88.497673,59.5726496 90.2390772,59.9186763 91.1979947,60.6107402 C92.1569121,61.3028041 92.6363636,62.5958514 92.6363636,64.489921 C92.6363636,66.0925952 92.0619264,67.2445001 90.9130348,67.9456701 C89.7641431,68.64684 87.669935,68.9974198 84.6303476,68.9974198 Z M84.7272727,64.5204407 L84.7272727,65.4957265 L85.7099174,65.4957265 C86.2851268,65.4957265 86.7045441,65.4362584 86.9681818,65.3173206 C87.2318195,65.1983827 87.3636364,64.9248297 87.3636364,64.4966533 L87.3636364,63.5213675 L86.3809917,63.5213675 C85.8057822,63.5213675 85.386365,63.5808356 85.1227273,63.6997735 C84.8590896,63.8187113 84.7272727,64.0922644 84.7272727,64.5204407 Z M96.5867983,60.5287857 C97.7743555,59.8913584 99.3912359,59.5726496 101.437488,59.5726496 C103.48374,59.5726496 105.365534,59.8549346 107.082924,60.419513 L106.452608,64.1347847 C105.02754,63.7341161 103.602492,63.5337849 102.177424,63.5337849 C101.738941,63.5337849 101.117767,63.5702087 100.313882,63.6430576 L100.313882,64.5172392 C103.27364,64.5172392 105.283322,64.9543256 106.342988,65.8285115 C106.872821,66.2656045 107.247353,66.7436678 107.466594,67.2627157 C107.685836,67.7817636 107.795455,68.4100753 107.795455,69.1476697 C107.795455,69.8852641 107.708673,70.5454467 107.535107,71.1282374 C107.361541,71.711028 107.096628,72.1754323 106.740361,72.5214643 C106.384094,72.8674962 106.01413,73.1497812 105.630457,73.3683277 C105.246785,73.5868742 104.744365,73.7416756 104.123181,73.8327367 C103.154865,73.9784343 102.03127,74.0512821 100.752363,74.0512821 C98.4868689,74.0512821 96.4406473,73.787209 94.6136364,73.259055 L95.298762,69.3798742 C96.8334513,69.8533916 98.4960063,70.0901468 100.286477,70.0901468 C101.108632,70.0901468 101.857695,70.0537229 102.533689,69.9808741 L102.533689,69.1066925 C99.6104717,69.1066925 97.5962224,68.7242419 96.4908807,67.9593291 C95.3855391,67.1944164 94.8328766,65.924134 94.8328766,64.1484438 C94.8328766,62.3727536 95.4175113,61.1662129 96.5867983,60.5287857 Z M110.431818,73.3931624 L110.431818,60.8888889 L115.704545,60.2307692 L115.704545,73.3931624 L110.431818,73.3931624 Z M110.357929,59.7412927 C109.967793,59.4149734 109.772727,58.8199295 109.772727,57.9561432 C109.772727,57.0923568 109.972226,56.4877154 110.371229,56.1422009 C110.770232,55.7966863 111.55936,55.6239316 112.738636,55.6239316 C113.917913,55.6239316 114.70704,55.7966863 115.106044,56.1422009 C115.505047,56.4877154 115.704545,57.0923568 115.704545,57.9561432 C115.704545,58.8199295 115.505047,59.4149734 115.106044,59.7412927 C114.70704,60.067612 113.917913,60.2307692 112.738636,60.2307692 C111.55936,60.2307692 110.765799,60.067612 110.357929,59.7412927 Z M118.560606,77.2006644 L119.274621,73.2306308 C120.830816,73.7457608 122.652452,74.0033219 124.739583,74.0033219 C125.362061,74.0033219 125.801451,73.9855591 126.057765,73.9500329 L126.057765,73.0174747 C124.428338,73.0174747 123.361903,72.950864 122.858428,72.8176407 C122.354953,72.6844175 122.025411,72.5511962 121.869792,72.4179729 C121.714172,72.2847497 121.622633,72.1737319 121.59517,72.0849164 C121.567708,71.9961009 121.553977,71.8717611 121.553977,71.7118931 L122.377841,69.4204644 C121.059652,69.189544 120.057295,68.7099475 119.370739,67.9816603 C118.684182,67.2533731 118.340909,66.1121108 118.340909,64.5578394 C118.340909,63.0035679 118.880992,61.8356614 119.961174,61.0540849 C121.041356,60.2725084 122.798915,59.881726 125.233902,59.881726 C126.112694,59.881726 126.890779,59.9350145 127.568182,60.0415931 L129.957386,58.2564103 L132.840909,60.9475068 L131.275568,62.7326897 C131.513574,63.3543983 131.632576,64.1537259 131.632576,65.1306966 C131.632576,66.5339817 131.270995,67.5775483 130.547822,68.2614277 C129.824649,68.9453072 128.538519,69.3582931 126.689394,69.5003979 L126.579545,70.1398664 C128.556828,70.246445 129.952805,70.5350911 130.767519,71.0058133 C131.582233,71.4765356 131.989583,72.3424738 131.989583,73.6036541 C131.989583,75.7529895 130.918571,77.0852022 128.776515,77.6003322 C127.714641,77.8667787 126.282048,78 124.478693,78 C122.675338,78 120.702662,77.7335575 118.560606,77.2006644 Z M123.613636,64.5546769 L123.613636,66.1538462 L124.430909,66.1538462 C125.06364,66.1538462 125.524999,66.0923403 125.815,65.9693266 C126.105001,65.846313 126.25,65.5633859 126.25,65.1205368 L126.25,63.5213675 L125.432727,63.5213675 C124.799997,63.5213675 124.338638,63.5828734 124.048636,63.7058871 C123.758635,63.8289007 123.613636,64.1118278 123.613636,64.5546769 Z M137.454545,59.9751888 L138.772727,61.3169861 C140.407281,60.1540893 142.164839,59.5726496 144.045455,59.5726496 C145.275764,59.5726496 146.242421,59.845479 146.945455,60.391146 C147.648488,60.936813 148,61.6926846 148,62.6587835 L148,73.3931624 L142.727273,73.3931624 L142.727273,64.0005809 L141.91,64.0005809 C141.312421,64.0005809 140.85985,64.0676701 140.552273,64.2018505 C140.244695,64.3360309 140.090909,64.6088603 140.090909,65.0203469 L140.090909,73.3931624 L134.818182,73.3931624 L134.818182,59.9751888 L137.454545,59.9751888 Z" id="Brita-Ness-Design"></path>
                <g id="Group-2">
                    <polygon id="Path-13" points="0.0629882812 52.2963867 0.0629882812 73.9526367 21.8325195 73.9526367"></polygon>
                    <polygon id="Path-14" points="0.0739746094 48.3254395 0.0739746094 0.0581054688 19.1987305 0.0581054688 19.1987305 36.2834473 44.864624 62.2260742 44.864624 73.9533691 26.0837402 73.9533691"></polygon>
                    <path d="M22.0029297,0.0666503906 L35.8761292,0.0666503906 C36.1686096,0.0592854818 36.457133,0.0757446289 36.7416992,0.116027832 C37.1685486,0.176452637 37.5413509,0.270465141 37.9181402,0.386847247 C42.540259,1.81452033 44.8513184,4.69431962 44.8513184,9.02624512 C44.8513184,13.7113037 42.148112,16.7242025 36.7416992,18.0649414 C42.148112,19.1984863 44.8513184,22.1800537 44.8513184,27.0096436 C44.8513184,31.8392334 42.148112,34.832194 36.7416992,35.9885254 L44.8513184,35.9885254 L44.8513184,57.8712158 L22.0029297,35.0334473 L22.0029297,0.0666503906 Z" id="Path-15"></path>
                </g>
            </g>
        </g>
    </g>
</svg>