<?xml version="1.0" encoding="UTF-8"?>
<svg width="55px" height="90px" viewBox="0 0 55 90" version="1.1" xmlns="http://www.w3.org/2000/svg" xmlns:xlink="http://www.w3.org/1999/xlink">
    <title>Group 2</title>
    <g id="Portfolio" stroke="none" stroke-width="1" fill="none" fill-rule="evenodd">
        <g id="Group-2" fill="#333333">
            <path d="M23.4916829,0 L23.4916829,44.120294 L55,75.716858 L55,90 L31.9439532,90 L0.0134871872,58.7867184 L0.0134871872,0 L23.4916829,0 Z M0,63.6230941 L26.7250112,89.999108 L0,89.999108 L0,63.6230941 Z M43.9654204,0.0104072024 C44.3244792,0.0014371851 44.6786803,0.0214834393 45.0280234,0.0705459651 C45.5520381,0.144139754 46.0097027,0.258641347 46.472262,0.400387773 C52.146531,2.13920798 54.9836655,5.64663082 54.9836655,10.9226563 C54.9836655,16.6287767 51.6651181,20.2983068 45.0280234,21.9312464 C51.6651181,23.3118361 54.9836655,26.9432064 54.9836655,32.8253572 C54.9836655,38.7075081 51.6651181,42.3527546 45.0280234,43.7610969 L54.9836655,43.7610969 L54.9836655,70.4129016 L26.9342125,42.597869 L26.9342125,0.0104072024 L43.9654204,0.0104072024 Z" id="Combined-Shape"></path>
        </g>
    </g>
</svg>